<?xml version="1.0" encoding="UTF-8" standalone="no"?><svg xmlns="http://www.w3.org/2000/svg" xmlns:xlink="http://www.w3.org/1999/xlink" contentScriptType="application/ecmascript" contentStyleType="text/css" height="345px" preserveAspectRatio="none" style="width:788px;height:345px;" version="1.1" viewBox="0 0 788 345" width="788px" zoomAndPan="magnify"><defs><filter height="300%" id="f1v9l2rmpgpt5i" width="300%" x="-1" y="-1"><feGaussianBlur result="blurOut" stdDeviation="2.0"/><feColorMatrix in="blurOut" result="blurOut2" type="matrix" values="0 0 0 0 0 0 0 0 0 0 0 0 0 0 0 0 0 0 .4 0"/><feOffset dx="4.0" dy="4.0" in="blurOut2" result="blurOut3"/><feBlend in="SourceGraphic" in2="blurOut3" mode="normal"/></filter></defs><g><!--cluster java.util.function--><polygon fill="#FFFFFF" filter="url(#f1v9l2rmpgpt5i)" points="417,16,540,16,547,41.0679,550,41.0679,550,118,417,118,417,16" style="stroke: #000000; stroke-width: 1.5;"/><line style="stroke: #000000; stroke-width: 1.5;" x1="417" x2="547" y1="41.0679" y2="41.0679"/><text fill="#000000" font-family="sans-serif" font-size="14" font-weight="bold" lengthAdjust="spacingAndGlyphs" textLength="117" x="421" y="32.9659">java.util.function</text><!--cluster de.thro.inf.prg3.a12.icndb--><polygon fill="#FFFFFF" filter="url(#f1v9l2rmpgpt5i)" points="14,126,199,126,206,151.0679,766,151.0679,766,333,14,333,14,126" style="stroke: #000000; stroke-width: 1.5;"/><line style="stroke: #000000; stroke-width: 1.5;" x1="14" x2="206" y1="151.0679" y2="151.0679"/><text fill="#000000" font-family="sans-serif" font-size="14" font-weight="bold" lengthAdjust="spacingAndGlyphs" textLength="179" x="18" y="142.9659">de.thro.inf.prg3.a12.icndb</text><!--cluster suppliers--><polygon fill="#FFFFFF" filter="url(#f1v9l2rmpgpt5i)" points="595,156,664,156,671,181.0679,758,181.0679,758,325,595,325,595,156" style="stroke: #000000; stroke-width: 1.5;"/><line style="stroke: #000000; stroke-width: 1.5;" x1="595" x2="671" y1="181.0679" y2="181.0679"/><text fill="#000000" font-family="sans-serif" font-size="14" font-weight="bold" lengthAdjust="spacingAndGlyphs" textLength="63" x="599" y="172.9659">suppliers</text><!--class Supplier--><rect fill="#FEFECE" filter="url(#f1v9l2rmpgpt5i)" height="62.9819" id="Supplier" style="stroke: #A80036; stroke-width: 1.5;" width="86" x="440" y="46.5"/><ellipse cx="455" cy="62.5" fill="#B4A7E5" rx="11" ry="11" style="stroke: #A80036; stroke-width: 1.0;"/><path d="M457.5625,69 L452.0469,69 L452.0469,67.5313 L453.5156,66.8594 L453.5156,59 L452.0469,58.3281 L452.0469,56.8594 L457.5625,56.8594 L457.5625,58.3281 L456.0938,59 L456.0938,66.8594 L457.5625,67.5313 L457.5625,69 Z "/><text fill="#000000" font-family="sans-serif" font-size="12" font-style="italic" lengthAdjust="spacingAndGlyphs" textLength="44" x="469" y="67.156">Supplier</text><rect fill="#FFFFFF" height="18.3441" style="stroke: #000000; stroke-width: 1.0; stroke-dasharray: 2.0,2.0;" width="8" x="521" y="43.5"/><text fill="#000000" font-family="sans-serif" font-size="12" font-style="italic" lengthAdjust="spacingAndGlyphs" textLength="6" x="522" y="57.3281">T</text><line style="stroke: #A80036; stroke-width: 1.5;" x1="441" x2="525" y1="78.5" y2="78.5"/><line style="stroke: #A80036; stroke-width: 1.5;" x1="441" x2="525" y1="86.5" y2="86.5"/><text fill="#000000" font-family="sans-serif" font-size="11" lengthAdjust="spacingAndGlyphs" textLength="35" x="446" y="102.2589">T get();</text><!--class JokeGenerator--><rect fill="#FEFECE" filter="url(#f1v9l2rmpgpt5i)" height="77.9638" id="JokeGenerator" style="stroke: #A80036; stroke-width: 1.5;" width="342" x="22" y="204"/><ellipse cx="148.25" cy="220" fill="#ADD1B2" rx="11" ry="11" style="stroke: #A80036; stroke-width: 1.0;"/><path d="M147.9375,216.3281 Q146.4531,216.3281 145.6719,217.4375 Q144.8906,218.5469 144.8906,220.4688 Q144.8906,222.4063 145.6094,223.4688 Q146.3281,224.5313 147.9375,224.5313 Q148.6719,224.5313 149.4063,224.3594 Q150.1563,224.1875 151.0313,223.875 L151.0313,226.0469 Q150.2188,226.3594 149.4375,226.5156 Q148.6563,226.6719 147.6875,226.6719 Q145.8281,226.6719 144.6094,225.9063 Q143.3906,225.125 142.8125,223.7188 Q142.2344,222.3125 142.2344,220.4531 Q142.2344,218.6094 142.8906,217.2031 Q143.5625,215.7969 144.8281,215 Q146.0938,214.1875 147.9375,214.1875 Q148.8281,214.1875 149.7344,214.4219 Q150.6563,214.6563 151.4844,215.0469 L150.6563,217.1406 Q149.9688,216.8125 149.2813,216.5781 Q148.5938,216.3281 147.9375,216.3281 Z "/><text fill="#000000" font-family="sans-serif" font-size="12" lengthAdjust="spacingAndGlyphs" textLength="81" x="168.75" y="224.656">JokeGenerator</text><line style="stroke: #A80036; stroke-width: 1.5;" x1="23" x2="363" y1="236" y2="236"/><line style="stroke: #A80036; stroke-width: 1.5;" x1="23" x2="363" y1="244" y2="244"/><ellipse cx="33" cy="256.9909" fill="#84BE84" rx="3" ry="3" style="stroke: #038048; stroke-width: 1.0;"/><text fill="#000000" font-family="sans-serif" font-size="11" lengthAdjust="spacingAndGlyphs" textLength="316" x="42" y="259.7589">randomJokesStream(): Stream&lt;ResponseWrapper&lt;JokeDto&gt;&gt;</text><ellipse cx="33" cy="271.9728" fill="#84BE84" rx="3" ry="3" style="stroke: #038048; stroke-width: 1.0;"/><text fill="#000000" font-family="sans-serif" font-size="11" lengthAdjust="spacingAndGlyphs" textLength="274" x="42" y="274.7408">jokesStream(): Stream&lt;ResponseWrapper&lt;JokeDto&gt;&gt;</text><!--class AllJokesSupplier--><rect fill="#FEFECE" filter="url(#f1v9l2rmpgpt5i)" height="48" id="AllJokesSupplier" style="stroke: #A80036; stroke-width: 1.5;" width="121" x="616" y="186"/><ellipse cx="631" cy="202" fill="#ADD1B2" rx="11" ry="11" style="stroke: #A80036; stroke-width: 1.0;"/><path d="M630.6875,198.3281 Q629.2031,198.3281 628.4219,199.4375 Q627.6406,200.5469 627.6406,202.4688 Q627.6406,204.4063 628.3594,205.4688 Q629.0781,206.5313 630.6875,206.5313 Q631.4219,206.5313 632.1563,206.3594 Q632.9063,206.1875 633.7813,205.875 L633.7813,208.0469 Q632.9688,208.3594 632.1875,208.5156 Q631.4063,208.6719 630.4375,208.6719 Q628.5781,208.6719 627.3594,207.9063 Q626.1406,207.125 625.5625,205.7188 Q624.9844,204.3125 624.9844,202.4531 Q624.9844,200.6094 625.6406,199.2031 Q626.3125,197.7969 627.5781,197 Q628.8438,196.1875 630.6875,196.1875 Q631.5781,196.1875 632.4844,196.4219 Q633.4063,196.6563 634.2344,197.0469 L633.4063,199.1406 Q632.7188,198.8125 632.0313,198.5781 Q631.3438,198.3281 630.6875,198.3281 Z "/><text fill="#000000" font-family="sans-serif" font-size="12" lengthAdjust="spacingAndGlyphs" textLength="89" x="645" y="206.656">AllJokesSupplier</text><line style="stroke: #A80036; stroke-width: 1.5;" x1="617" x2="736" y1="218" y2="218"/><line style="stroke: #A80036; stroke-width: 1.5;" x1="617" x2="736" y1="226" y2="226"/><!--class RandomJokeSupplier--><rect fill="#FEFECE" filter="url(#f1v9l2rmpgpt5i)" height="48" id="RandomJokeSupplier" style="stroke: #A80036; stroke-width: 1.5;" width="147" x="603" y="269"/><ellipse cx="618" cy="285" fill="#ADD1B2" rx="11" ry="11" style="stroke: #A80036; stroke-width: 1.0;"/><path d="M617.6875,281.3281 Q616.2031,281.3281 615.4219,282.4375 Q614.6406,283.5469 614.6406,285.4688 Q614.6406,287.4063 615.3594,288.4688 Q616.0781,289.5313 617.6875,289.5313 Q618.4219,289.5313 619.1563,289.3594 Q619.9063,289.1875 620.7813,288.875 L620.7813,291.0469 Q619.9688,291.3594 619.1875,291.5156 Q618.4063,291.6719 617.4375,291.6719 Q615.5781,291.6719 614.3594,290.9063 Q613.1406,290.125 612.5625,288.7188 Q611.9844,287.3125 611.9844,285.4531 Q611.9844,283.6094 612.6406,282.2031 Q613.3125,280.7969 614.5781,280 Q615.8438,279.1875 617.6875,279.1875 Q618.5781,279.1875 619.4844,279.4219 Q620.4063,279.6563 621.2344,280.0469 L620.4063,282.1406 Q619.7188,281.8125 619.0313,281.5781 Q618.3438,281.3281 617.6875,281.3281 Z "/><text fill="#000000" font-family="sans-serif" font-size="12" lengthAdjust="spacingAndGlyphs" textLength="115" x="632" y="289.656">RandomJokeSupplier</text><line style="stroke: #A80036; stroke-width: 1.5;" x1="604" x2="749" y1="301" y2="301"/><line style="stroke: #A80036; stroke-width: 1.5;" x1="604" x2="749" y1="309" y2="309"/><!--link Supplier to AllJokesSupplier--><path d="M544.3116,105.4015 C554.1376,110.5181 564.0192,116.1202 573,122 C601.8098,140.862 631.4225,166.8321 651.5516,185.6676 " fill="none" id="Supplier-AllJokesSupplier" style="stroke: #A80036; stroke-width: 1.0; stroke-dasharray: 7.0,7.0;"/><polygon fill="none" points="541.1355,111.64,526.32,96.4907,547.349,99.0944,541.1355,111.64" style="stroke: #A80036; stroke-width: 1.0;"/><!--link Supplier to RandomJokeSupplier--><path d="M542.1165,110.1967 C544.9268,112.6638 547.58,115.2657 550,118 C566.7487,136.9235 564.5529,146.1827 573,170 C585.4694,205.1585 571.541,221.9951 595,251 C600.6055,257.9307 607.6586,263.839 615.2576,268.8406 " fill="none" id="Supplier-RandomJokeSupplier" style="stroke: #A80036; stroke-width: 1.0; stroke-dasharray: 7.0,7.0;"/><polygon fill="none" points="537.944,115.8173,526.0187,98.3018,546.2639,104.5576,537.944,115.8173" style="stroke: #A80036; stroke-width: 1.0;"/><!--link JokeGenerator to AllJokesSupplier--><path d="M364.1444,231.319 C451.7535,225.3395 552.9235,218.4344 615.8117,214.1421 " fill="none" id="JokeGenerator-AllJokesSupplier" style="stroke: #A80036; stroke-width: 1.0;"/><text fill="#000000" font-family="sans-serif" font-size="13" lengthAdjust="spacingAndGlyphs" textLength="27" x="469.5" y="215.897">uses</text><!--link JokeGenerator to RandomJokeSupplier--><path d="M364.1444,260.6985 C445.9129,269.1544 539.4944,278.8319 602.739,285.3722 " fill="none" id="JokeGenerator-RandomJokeSupplier" style="stroke: #A80036; stroke-width: 1.0;"/><text fill="#000000" font-family="sans-serif" font-size="13" lengthAdjust="spacingAndGlyphs" textLength="27" x="469.5" y="262.897">uses</text><!--
@startuml GeneratorSpec
left to right direction
package java.util.function {
    interface Supplier<T> {
        T get();
    }
}

package de.thro.inf.prg3.a12.icndb {
    class JokeGenerator {
        +randomJokesStream(): Stream<ResponseWrapper<JokeDto>>
        +jokesStream(): Stream<ResponseWrapper<JokeDto>>
    }

    package suppliers {
        class AllJokesSupplier implements Supplier {
        }

        class RandomJokeSupplier implements Supplier {
        }
    }

    JokeGenerator - - AllJokesSupplier : "uses"
    JokeGenerator - - RandomJokeSupplier : "uses"
}

@enduml

PlantUML version 1.2018.14(Fri Dec 21 17:33:16 CET 2018)
(GPL source distribution)
Java Runtime: OpenJDK Runtime Environment
JVM: OpenJDK 64-Bit Server VM
Java Version: 11.0.1+13
Operating System: Linux
OS Version: 4.20.0-arch1-1-ARCH
Default Encoding: UTF-8
Language: en
Country: US
--></g></svg>