<?xml version="1.0" encoding="UTF-8" standalone="no"?><svg xmlns="http://www.w3.org/2000/svg" xmlns:xlink="http://www.w3.org/1999/xlink" contentScriptType="application/ecmascript" contentStyleType="text/css" height="334px" preserveAspectRatio="none" style="width:853px;height:334px;" version="1.1" viewBox="0 0 853 334" width="853px" zoomAndPan="magnify"><defs><filter height="300%" id="fwyjo2x2t4kyk" width="300%" x="-1" y="-1"><feGaussianBlur result="blurOut" stdDeviation="2.0"/><feColorMatrix in="blurOut" result="blurOut2" type="matrix" values="0 0 0 0 0 0 0 0 0 0 0 0 0 0 0 0 0 0 .4 0"/><feOffset dx="4.0" dy="4.0" in="blurOut2" result="blurOut3"/><feBlend in="SourceGraphic" in2="blurOut3" mode="normal"/></filter></defs><g><!--cluster java.util.function--><polygon fill="#FFFFFF" filter="url(#fwyjo2x2t4kyk)" points="456,16,592,16,599,38.2969,602,38.2969,602,113,456,113,456,16" style="stroke: #000000; stroke-width: 1.5;"/><line style="stroke: #000000; stroke-width: 1.5;" x1="456" x2="599" y1="38.2969" y2="38.2969"/><text fill="#000000" font-family="sans-serif" font-size="14" font-weight="bold" lengthAdjust="spacingAndGlyphs" textLength="130" x="460" y="30.9951">java.util.function</text><!--cluster de.fhro.inf.prg3.a12.icndb--><polygon fill="#FFFFFF" filter="url(#fwyjo2x2t4kyk)" points="14,121,227,121,234,143.2969,831,143.2969,831,322,14,322,14,121" style="stroke: #000000; stroke-width: 1.5;"/><line style="stroke: #000000; stroke-width: 1.5;" x1="14" x2="234" y1="143.2969" y2="143.2969"/><text fill="#000000" font-family="sans-serif" font-size="14" font-weight="bold" lengthAdjust="spacingAndGlyphs" textLength="207" x="18" y="135.9951">de.fhro.inf.prg3.a12.icndb</text><!--cluster suppliers--><polygon fill="#FFFFFF" filter="url(#fwyjo2x2t4kyk)" points="647,148,726,148,733,170.2969,823,170.2969,823,314,647,314,647,148" style="stroke: #000000; stroke-width: 1.5;"/><line style="stroke: #000000; stroke-width: 1.5;" x1="647" x2="733" y1="170.2969" y2="170.2969"/><text fill="#000000" font-family="sans-serif" font-size="14" font-weight="bold" lengthAdjust="spacingAndGlyphs" textLength="73" x="651" y="162.9951">suppliers</text><!--class Supplier--><rect fill="#FEFECE" filter="url(#fwyjo2x2t4kyk)" height="60.8047" id="Supplier" style="stroke: #A80036; stroke-width: 1.5;" width="94" x="482" y="43.5"/><ellipse cx="497" cy="59.5" fill="#B4A7E5" rx="11" ry="11" style="stroke: #A80036; stroke-width: 1.0;"/><path d="M492.9219,55.2656 L492.9219,53.1094 L500.3125,53.1094 L500.3125,55.2656 L497.8438,55.2656 L497.8438,63.3438 L500.3125,63.3438 L500.3125,65.5 L492.9219,65.5 L492.9219,63.3438 L495.3906,63.3438 L495.3906,55.2656 L492.9219,55.2656 Z "/><text fill="#000000" font-family="sans-serif" font-size="12" font-style="italic" lengthAdjust="spacingAndGlyphs" textLength="51" x="511" y="63.6543">Supplier</text><rect fill="#FFFFFF" height="15.9688" style="stroke: #000000; stroke-width: 1.0; stroke-dasharray: 2.0,2.0;" width="9" x="570" y="40.5"/><text fill="#000000" font-family="sans-serif" font-size="12" font-style="italic" lengthAdjust="spacingAndGlyphs" textLength="7" x="571" y="52.6387">T</text><line style="stroke: #A80036; stroke-width: 1.5;" x1="483" x2="575" y1="75.5" y2="75.5"/><line style="stroke: #A80036; stroke-width: 1.5;" x1="483" x2="575" y1="83.5" y2="83.5"/><text fill="#000000" font-family="sans-serif" font-size="11" lengthAdjust="spacingAndGlyphs" textLength="41" x="488" y="97.7104">T get();</text><!--class JokeGenerator--><rect fill="#FEFECE" filter="url(#fwyjo2x2t4kyk)" height="73.6094" id="JokeGenerator" style="stroke: #A80036; stroke-width: 1.5;" width="381" x="22" y="197"/><ellipse cx="163.25" cy="213" fill="#ADD1B2" rx="11" ry="11" style="stroke: #A80036; stroke-width: 1.0;"/><path d="M166.2188,218.6406 Q165.6406,218.9375 165,219.0781 Q164.3594,219.2344 163.6563,219.2344 Q161.1563,219.2344 159.8281,217.5938 Q158.5156,215.9375 158.5156,212.8125 Q158.5156,209.6875 159.8281,208.0313 Q161.1563,206.375 163.6563,206.375 Q164.3594,206.375 165,206.5313 Q165.6563,206.6875 166.2188,206.9844 L166.2188,209.7031 Q165.5938,209.125 165,208.8594 Q164.4063,208.5781 163.7813,208.5781 Q162.4375,208.5781 161.75,209.6563 Q161.0625,210.7188 161.0625,212.8125 Q161.0625,214.9063 161.75,215.9844 Q162.4375,217.0469 163.7813,217.0469 Q164.4063,217.0469 165,216.7813 Q165.5938,216.5 166.2188,215.9219 L166.2188,218.6406 Z "/><text fill="#000000" font-family="sans-serif" font-size="12" lengthAdjust="spacingAndGlyphs" textLength="90" x="183.75" y="217.1543">JokeGenerator</text><line style="stroke: #A80036; stroke-width: 1.5;" x1="23" x2="402" y1="229" y2="229"/><line style="stroke: #A80036; stroke-width: 1.5;" x1="23" x2="402" y1="237" y2="237"/><ellipse cx="33" cy="248.9023" fill="#84BE84" rx="3" ry="3" style="stroke: #038048; stroke-width: 1.0;"/><text fill="#000000" font-family="sans-serif" font-size="11" lengthAdjust="spacingAndGlyphs" textLength="355" x="42" y="251.2104">randomJokesStream(): Stream&lt;ResponseWrapper&lt;JokeDto&gt;&gt;</text><ellipse cx="33" cy="261.707" fill="#84BE84" rx="3" ry="3" style="stroke: #038048; stroke-width: 1.0;"/><text fill="#000000" font-family="sans-serif" font-size="11" lengthAdjust="spacingAndGlyphs" textLength="311" x="42" y="264.0151">jokesStream(): Stream&lt;ResponseWrapper&lt;JokeDto&gt;&gt;</text><!--class AllJokesSupplier--><rect fill="#FEFECE" filter="url(#fwyjo2x2t4kyk)" height="48" id="AllJokesSupplier" style="stroke: #A80036; stroke-width: 1.5;" width="130" x="670" y="175"/><ellipse cx="685" cy="191" fill="#ADD1B2" rx="11" ry="11" style="stroke: #A80036; stroke-width: 1.0;"/><path d="M687.9688,196.6406 Q687.3906,196.9375 686.75,197.0781 Q686.1094,197.2344 685.4063,197.2344 Q682.9063,197.2344 681.5781,195.5938 Q680.2656,193.9375 680.2656,190.8125 Q680.2656,187.6875 681.5781,186.0313 Q682.9063,184.375 685.4063,184.375 Q686.1094,184.375 686.75,184.5313 Q687.4063,184.6875 687.9688,184.9844 L687.9688,187.7031 Q687.3438,187.125 686.75,186.8594 Q686.1563,186.5781 685.5313,186.5781 Q684.1875,186.5781 683.5,187.6563 Q682.8125,188.7188 682.8125,190.8125 Q682.8125,192.9063 683.5,193.9844 Q684.1875,195.0469 685.5313,195.0469 Q686.1563,195.0469 686.75,194.7813 Q687.3438,194.5 687.9688,193.9219 L687.9688,196.6406 Z "/><text fill="#000000" font-family="sans-serif" font-size="12" lengthAdjust="spacingAndGlyphs" textLength="98" x="699" y="195.1543">AllJokesSupplier</text><line style="stroke: #A80036; stroke-width: 1.5;" x1="671" x2="799" y1="207" y2="207"/><line style="stroke: #A80036; stroke-width: 1.5;" x1="671" x2="799" y1="215" y2="215"/><!--class RandomJokeSupplier--><rect fill="#FEFECE" filter="url(#fwyjo2x2t4kyk)" height="48" id="RandomJokeSupplier" style="stroke: #A80036; stroke-width: 1.5;" width="160" x="655" y="258"/><ellipse cx="670" cy="274" fill="#ADD1B2" rx="11" ry="11" style="stroke: #A80036; stroke-width: 1.0;"/><path d="M672.9688,279.6406 Q672.3906,279.9375 671.75,280.0781 Q671.1094,280.2344 670.4063,280.2344 Q667.9063,280.2344 666.5781,278.5938 Q665.2656,276.9375 665.2656,273.8125 Q665.2656,270.6875 666.5781,269.0313 Q667.9063,267.375 670.4063,267.375 Q671.1094,267.375 671.75,267.5313 Q672.4063,267.6875 672.9688,267.9844 L672.9688,270.7031 Q672.3438,270.125 671.75,269.8594 Q671.1563,269.5781 670.5313,269.5781 Q669.1875,269.5781 668.5,270.6563 Q667.8125,271.7188 667.8125,273.8125 Q667.8125,275.9063 668.5,276.9844 Q669.1875,278.0469 670.5313,278.0469 Q671.1563,278.0469 671.75,277.7813 Q672.3438,277.5 672.9688,276.9219 L672.9688,279.6406 Z "/><text fill="#000000" font-family="sans-serif" font-size="12" lengthAdjust="spacingAndGlyphs" textLength="128" x="684" y="278.1543">RandomJokeSupplier</text><line style="stroke: #A80036; stroke-width: 1.5;" x1="656" x2="814" y1="290" y2="290"/><line style="stroke: #A80036; stroke-width: 1.5;" x1="656" x2="814" y1="298" y2="298"/><!--link Supplier to AllJokesSupplier--><path d="M594.7652,100.3169 C605.0865,105.143 615.4809,110.4302 625,116 C654.5277,133.2773 685.3904,157.1508 706.8832,174.8604 " fill="none" id="Supplier-AllJokesSupplier" style="stroke: #A80036; stroke-width: 1.0; stroke-dasharray: 7.0,7.0;"/><polygon fill="none" points="591.891,106.6997,576.4707,92.1665,597.5884,93.9114,591.891,106.6997" style="stroke: #A80036; stroke-width: 1.0;"/><!--link Supplier to RandomJokeSupplier--><path d="M593.1176,104.779 C596.2857,107.3484 599.2765,110.0877 602,113 C618.9835,131.1613 616.4103,140.6657 625,164 C637.1477,196.9997 624.2488,213.1872 647,240 C652.9145,246.9703 660.2493,252.8688 668.1421,257.8375 " fill="none" id="Supplier-RandomJokeSupplier" style="stroke: #A80036; stroke-width: 1.0; stroke-dasharray: 7.0,7.0;"/><polygon fill="none" points="588.8495,110.3428,576.2151,93.3318,596.7001,98.751,588.8495,110.3428" style="stroke: #A80036; stroke-width: 1.0;"/><!--link JokeGenerator to AllJokesSupplier--><path d="M403.3524,221.2156 C496.7852,214.957 603.1995,207.8287 669.7318,203.372 " fill="none" id="JokeGenerator-AllJokesSupplier" style="stroke: #A80036; stroke-width: 1.0;"/><text fill="#000000" font-family="sans-serif" font-size="13" lengthAdjust="spacingAndGlyphs" textLength="30" x="514" y="204.0669">uses</text><!--link JokeGenerator to RandomJokeSupplier--><path d="M403.3524,251.5329 C490.0802,259.5002 587.9932,268.4951 654.8115,274.6334 " fill="none" id="JokeGenerator-RandomJokeSupplier" style="stroke: #A80036; stroke-width: 1.0;"/><text fill="#000000" font-family="sans-serif" font-size="13" lengthAdjust="spacingAndGlyphs" textLength="30" x="514" y="253.0669">uses</text><!--
@startuml GeneratorSpec
left to right direction
package java.util.function {
    interface Supplier<T> {
        T get();
    }
}

package de.fhro.inf.prg3.a12.icndb {
    class JokeGenerator {
        +randomJokesStream(): Stream<ResponseWrapper<JokeDto>>
        +jokesStream(): Stream<ResponseWrapper<JokeDto>>
    }

    package suppliers {
        class AllJokesSupplier implements Supplier {
        }

        class RandomJokeSupplier implements Supplier {
        }
    }

    JokeGenerator - - AllJokesSupplier : "uses"
    JokeGenerator - - RandomJokeSupplier : "uses"
}

@enduml

PlantUML version 1.2017.20(Mon Dec 11 17:57:05 CET 2017)
(GPL source distribution)
Java Runtime: OpenJDK Runtime Environment
JVM: OpenJDK 64-Bit Server VM
Java Version: 9+181
Operating System: Linux
OS Version: 4.14.10-1-ARCH
Default Encoding: UTF-8
Language: en
Country: US
--></g></svg>