<?xml version="1.0" encoding="UTF-8" standalone="no"?><svg xmlns="http://www.w3.org/2000/svg" xmlns:xlink="http://www.w3.org/1999/xlink" contentScriptType="application/ecmascript" contentStyleType="text/css" height="386px" preserveAspectRatio="none" style="width:586px;height:386px;" version="1.1" viewBox="0 0 586 386" width="586px" zoomAndPan="magnify"><defs><filter height="300%" id="ff5x8r6f147bv" width="300%" x="-1" y="-1"><feGaussianBlur result="blurOut" stdDeviation="2.0"/><feColorMatrix in="blurOut" result="blurOut2" type="matrix" values="0 0 0 0 0 0 0 0 0 0 0 0 0 0 0 0 0 0 .4 0"/><feOffset dx="4.0" dy="4.0" in="blurOut2" result="blurOut3"/><feBlend in="SourceGraphic" in2="blurOut3" mode="normal"/></filter></defs><g><!--cluster java.util.function--><polygon fill="#FFFFFF" filter="url(#ff5x8r6f147bv)" points="14,156,150,156,157,178.2969,160,178.2969,160,252,14,252,14,156" style="stroke: #000000; stroke-width: 1.5;"/><line style="stroke: #000000; stroke-width: 1.5;" x1="14" x2="157" y1="178.2969" y2="178.2969"/><text fill="#000000" font-family="sans-serif" font-size="14" font-weight="bold" lengthAdjust="spacingAndGlyphs" textLength="130" x="18" y="170.9951">java.util.function</text><!--cluster de.fhro.inf.prg3.a12.icndb--><polygon fill="#FFFFFF" filter="url(#ff5x8r6f147bv)" points="168,16,381,16,388,38.2969,564,38.2969,564,374,168,374,168,16" style="stroke: #000000; stroke-width: 1.5;"/><line style="stroke: #000000; stroke-width: 1.5;" x1="168" x2="388" y1="38.2969" y2="38.2969"/><text fill="#000000" font-family="sans-serif" font-size="14" font-weight="bold" lengthAdjust="spacingAndGlyphs" textLength="207" x="172" y="30.9951">de.fhro.inf.prg3.a12.icndb</text><!--cluster suppliers--><polygon fill="#FFFFFF" filter="url(#ff5x8r6f147bv)" points="176,283,255,283,262,305.2969,517,305.2969,517,366,176,366,176,283" style="stroke: #000000; stroke-width: 1.5;"/><line style="stroke: #000000; stroke-width: 1.5;" x1="176" x2="262" y1="305.2969" y2="305.2969"/><text fill="#000000" font-family="sans-serif" font-size="14" font-weight="bold" lengthAdjust="spacingAndGlyphs" textLength="73" x="180" y="297.9951">suppliers</text><!--class Supplier--><rect fill="#FEFECE" filter="url(#ff5x8r6f147bv)" height="60.8047" id="Supplier" style="stroke: #A80036; stroke-width: 1.5;" width="94" x="58" y="183"/><ellipse cx="73" cy="199" fill="#B4A7E5" rx="11" ry="11" style="stroke: #A80036; stroke-width: 1.0;"/><path d="M68.9219,194.7656 L68.9219,192.6094 L76.3125,192.6094 L76.3125,194.7656 L73.8438,194.7656 L73.8438,202.8438 L76.3125,202.8438 L76.3125,205 L68.9219,205 L68.9219,202.8438 L71.3906,202.8438 L71.3906,194.7656 L68.9219,194.7656 Z "/><text fill="#000000" font-family="sans-serif" font-size="12" font-style="italic" lengthAdjust="spacingAndGlyphs" textLength="51" x="87" y="203.1543">Supplier</text><rect fill="#FFFFFF" height="15.9688" style="stroke: #000000; stroke-width: 1.0; stroke-dasharray: 2.0,2.0;" width="9" x="146" y="180"/><text fill="#000000" font-family="sans-serif" font-size="12" font-style="italic" lengthAdjust="spacingAndGlyphs" textLength="7" x="147" y="192.1387">T</text><line style="stroke: #A80036; stroke-width: 1.5;" x1="59" x2="151" y1="215" y2="215"/><line style="stroke: #A80036; stroke-width: 1.5;" x1="59" x2="151" y1="223" y2="223"/><text fill="#000000" font-family="sans-serif" font-size="11" lengthAdjust="spacingAndGlyphs" textLength="41" x="64" y="237.2104">T get();</text><!--class JokeGenerator--><rect fill="#FEFECE" filter="url(#ff5x8r6f147bv)" height="73.6094" id="JokeGenerator" style="stroke: #A80036; stroke-width: 1.5;" width="381" x="175.5" y="43"/><ellipse cx="316.75" cy="59" fill="#ADD1B2" rx="11" ry="11" style="stroke: #A80036; stroke-width: 1.0;"/><path d="M319.7188,64.6406 Q319.1406,64.9375 318.5,65.0859 Q317.8594,65.2344 317.1563,65.2344 Q314.6563,65.2344 313.3359,63.5859 Q312.0156,61.9375 312.0156,58.8125 Q312.0156,55.6875 313.3359,54.0313 Q314.6563,52.375 317.1563,52.375 Q317.8594,52.375 318.5078,52.5313 Q319.1563,52.6875 319.7188,52.9844 L319.7188,55.7031 Q319.0938,55.125 318.5,54.8516 Q317.9063,54.5781 317.2813,54.5781 Q315.9375,54.5781 315.25,55.6484 Q314.5625,56.7188 314.5625,58.8125 Q314.5625,60.9063 315.25,61.9766 Q315.9375,63.0469 317.2813,63.0469 Q317.9063,63.0469 318.5,62.7734 Q319.0938,62.5 319.7188,61.9219 L319.7188,64.6406 Z "/><text fill="#000000" font-family="sans-serif" font-size="12" lengthAdjust="spacingAndGlyphs" textLength="90" x="337.25" y="63.1543">JokeGenerator</text><line style="stroke: #A80036; stroke-width: 1.5;" x1="176.5" x2="555.5" y1="75" y2="75"/><line style="stroke: #A80036; stroke-width: 1.5;" x1="176.5" x2="555.5" y1="83" y2="83"/><ellipse cx="186.5" cy="94.9023" fill="#84BE84" rx="3" ry="3" style="stroke: #038048; stroke-width: 1.0;"/><text fill="#000000" font-family="sans-serif" font-size="11" lengthAdjust="spacingAndGlyphs" textLength="355" x="195.5" y="97.2104">randomJokesStream(): Stream&lt;ResponseWrapper&lt;JokeDto&gt;&gt;</text><ellipse cx="186.5" cy="107.707" fill="#84BE84" rx="3" ry="3" style="stroke: #038048; stroke-width: 1.0;"/><text fill="#000000" font-family="sans-serif" font-size="11" lengthAdjust="spacingAndGlyphs" textLength="311" x="195.5" y="110.0151">jokesStream(): Stream&lt;ResponseWrapper&lt;JokeDto&gt;&gt;</text><!--class AllJokesSupplier--><rect fill="#FEFECE" filter="url(#ff5x8r6f147bv)" height="48" id="AllJokesSupplier" style="stroke: #A80036; stroke-width: 1.5;" width="130" x="184" y="310"/><ellipse cx="199" cy="326" fill="#ADD1B2" rx="11" ry="11" style="stroke: #A80036; stroke-width: 1.0;"/><path d="M201.9688,331.6406 Q201.3906,331.9375 200.75,332.0859 Q200.1094,332.2344 199.4063,332.2344 Q196.9063,332.2344 195.5859,330.5859 Q194.2656,328.9375 194.2656,325.8125 Q194.2656,322.6875 195.5859,321.0313 Q196.9063,319.375 199.4063,319.375 Q200.1094,319.375 200.7578,319.5313 Q201.4063,319.6875 201.9688,319.9844 L201.9688,322.7031 Q201.3438,322.125 200.75,321.8516 Q200.1563,321.5781 199.5313,321.5781 Q198.1875,321.5781 197.5,322.6484 Q196.8125,323.7188 196.8125,325.8125 Q196.8125,327.9063 197.5,328.9766 Q198.1875,330.0469 199.5313,330.0469 Q200.1563,330.0469 200.75,329.7734 Q201.3438,329.5 201.9688,328.9219 L201.9688,331.6406 Z "/><text fill="#000000" font-family="sans-serif" font-size="12" lengthAdjust="spacingAndGlyphs" textLength="98" x="213" y="330.1543">AllJokesSupplier</text><line style="stroke: #A80036; stroke-width: 1.5;" x1="185" x2="313" y1="342" y2="342"/><line style="stroke: #A80036; stroke-width: 1.5;" x1="185" x2="313" y1="350" y2="350"/><!--class RandomJokeSupplier--><rect fill="#FEFECE" filter="url(#ff5x8r6f147bv)" height="48" id="RandomJokeSupplier" style="stroke: #A80036; stroke-width: 1.5;" width="160" x="349" y="310"/><ellipse cx="364" cy="326" fill="#ADD1B2" rx="11" ry="11" style="stroke: #A80036; stroke-width: 1.0;"/><path d="M366.9688,331.6406 Q366.3906,331.9375 365.75,332.0859 Q365.1094,332.2344 364.4063,332.2344 Q361.9063,332.2344 360.5859,330.5859 Q359.2656,328.9375 359.2656,325.8125 Q359.2656,322.6875 360.5859,321.0313 Q361.9063,319.375 364.4063,319.375 Q365.1094,319.375 365.7578,319.5313 Q366.4063,319.6875 366.9688,319.9844 L366.9688,322.7031 Q366.3438,322.125 365.75,321.8516 Q365.1563,321.5781 364.5313,321.5781 Q363.1875,321.5781 362.5,322.6484 Q361.8125,323.7188 361.8125,325.8125 Q361.8125,327.9063 362.5,328.9766 Q363.1875,330.0469 364.5313,330.0469 Q365.1563,330.0469 365.75,329.7734 Q366.3438,329.5 366.9688,328.9219 L366.9688,331.6406 Z "/><text fill="#000000" font-family="sans-serif" font-size="12" lengthAdjust="spacingAndGlyphs" textLength="128" x="378" y="330.1543">RandomJokeSupplier</text><line style="stroke: #A80036; stroke-width: 1.5;" x1="350" x2="508" y1="342" y2="342"/><line style="stroke: #A80036; stroke-width: 1.5;" x1="350" x2="508" y1="350" y2="350"/><!--link Supplier to AllJokesSupplier--><path d="M157.2865,257.2537 C178.4603,274.972 202.0984,294.7525 220.0732,309.7939 " fill="none" id="Supplier-AllJokesSupplier" style="stroke: #A80036; stroke-width: 1.0; stroke-dasharray: 7.0,7.0;"/><polygon fill="none" points="152.5558,262.4225,141.7099,244.219,161.5404,251.6858,152.5558,262.4225" style="stroke: #A80036; stroke-width: 1.0;"/><!--link Supplier to RandomJokeSupplier--><path d="M163.812,253.2707 C191.239,267.1376 201.1037,269.6599 227,275 C272.8375,284.4522 287.0214,270.0639 332,283 C352.8447,288.9951 374.36,299.7643 391.8151,309.8668 " fill="none" id="Supplier-RandomJokeSupplier" style="stroke: #A80036; stroke-width: 1.0; stroke-dasharray: 7.0,7.0;"/><polygon fill="none" points="160.4923,259.4344,145.9722,244.0016,166.9471,247.0112,160.4923,259.4344" style="stroke: #A80036; stroke-width: 1.0;"/><!--link JokeGenerator to AllJokesSupplier--><path d="M348.8619,117.2058 C324.552,169.9812 280.7318,265.1121 260.1938,309.6989 " fill="none" id="JokeGenerator-AllJokesSupplier" style="stroke: #A80036; stroke-width: 1.0;"/><text fill="#000000" font-family="sans-serif" font-size="13" lengthAdjust="spacingAndGlyphs" textLength="30" x="331" y="218.0669">uses</text><!--link JokeGenerator to RandomJokeSupplier--><path d="M375.2282,117.2058 C388.3182,169.9812 411.9136,265.1121 422.9726,309.6989 " fill="none" id="JokeGenerator-RandomJokeSupplier" style="stroke: #A80036; stroke-width: 1.0;"/><text fill="#000000" font-family="sans-serif" font-size="13" lengthAdjust="spacingAndGlyphs" textLength="30" x="409" y="218.0669">uses</text><!--
@startuml GeneratorSpec

package java.util.function {
    interface Supplier<T> {
        T get();
    }
}

package de.fhro.inf.prg3.a12.icndb {
    class JokeGenerator {
        +randomJokesStream(): Stream<ResponseWrapper<JokeDto>>
        +jokesStream(): Stream<ResponseWrapper<JokeDto>>
    }

    package suppliers {
        class AllJokesSupplier implements Supplier {
        }

        class RandomJokeSupplier implements Supplier {
        }
    }

    JokeGenerator - - AllJokesSupplier : "uses"
    JokeGenerator - - RandomJokeSupplier : "uses"
}

@enduml

PlantUML version 1.2017.20(Mon Dec 11 17:57:05 CET 2017)
(GPL source distribution)
Java Runtime: OpenJDK Runtime Environment
JVM: OpenJDK 64-Bit Server VM
Java Version: 1.8.0_144-b01
Operating System: Linux
OS Version: 4.14.8-1-ARCH
Default Encoding: UTF-8
Language: en
Country: US
--></g></svg>