<?xml version="1.0" encoding="UTF-8" standalone="no"?><svg xmlns="http://www.w3.org/2000/svg" xmlns:xlink="http://www.w3.org/1999/xlink" contentScriptType="application/ecmascript" contentStyleType="text/css" height="469px" preserveAspectRatio="none" style="width:355px;height:469px;" version="1.1" viewBox="0 0 355 469" width="355px" zoomAndPan="magnify"><defs><filter height="300%" id="f9zskfbuzy97j" width="300%" x="-1" y="-1"><feGaussianBlur result="blurOut" stdDeviation="2.0"/><feColorMatrix in="blurOut" result="blurOut2" type="matrix" values="0 0 0 0 0 0 0 0 0 0 0 0 0 0 0 0 0 0 .4 0"/><feOffset dx="4.0" dy="4.0" in="blurOut2" result="blurOut3"/><feBlend in="SourceGraphic" in2="blurOut3" mode="normal"/></filter></defs><g><ellipse cx="175" cy="18" fill="#000000" filter="url(#f9zskfbuzy97j)" rx="10" ry="10" style="stroke: none; stroke-width: 1.0;"/><rect fill="#FEFECE" filter="url(#f9zskfbuzy97j)" height="33.9688" rx="12.5" ry="12.5" style="stroke: #A80036; stroke-width: 1.5;" width="176" x="87" y="68"/><text fill="#000000" font-family="sans-serif" font-size="12" lengthAdjust="spacingAndGlyphs" textLength="156" x="97" y="89.1387">Filter for non null objects</text><rect fill="#FEFECE" filter="url(#f9zskfbuzy97j)" height="33.9688" rx="12.5" ry="12.5" style="stroke: #A80036; stroke-width: 1.5;" width="222" x="64" y="142"/><text fill="#000000" font-family="sans-serif" font-size="12" lengthAdjust="spacingAndGlyphs" textLength="202" x="74" y="163.1387">Skip as many values as required</text><rect fill="#FEFECE" filter="url(#f9zskfbuzy97j)" height="33.9688" rx="12.5" ry="12.5" style="stroke: #A80036; stroke-width: 1.5;" width="338" x="6" y="216"/><text fill="#000000" font-family="sans-serif" font-size="12" lengthAdjust="spacingAndGlyphs" textLength="318" x="16" y="237.1387">Limit the stream to the required count of elements</text><rect fill="#FEFECE" filter="url(#f9zskfbuzy97j)" height="33.9688" rx="12.5" ry="12.5" style="stroke: #A80036; stroke-width: 1.5;" width="309" x="20.5" y="290"/><text fill="#000000" font-family="sans-serif" font-size="12" lengthAdjust="spacingAndGlyphs" textLength="289" x="30.5" y="311.1387">use `map` to unwrap the `ResponseWrapper`</text><rect fill="#FEFECE" filter="url(#f9zskfbuzy97j)" height="33.9688" rx="12.5" ry="12.5" style="stroke: #A80036; stroke-width: 1.5;" width="206" x="72" y="364"/><text fill="#000000" font-family="sans-serif" font-size="12" lengthAdjust="spacingAndGlyphs" textLength="186" x="82" y="385.1387">Print the jokes to the STDOUT</text><ellipse cx="175" cy="448" fill="none" filter="url(#f9zskfbuzy97j)" rx="10" ry="10" style="stroke: #000000; stroke-width: 1.0;"/><ellipse cx="175.5" cy="448.5" fill="#000000" rx="6" ry="6" style="stroke: none; stroke-width: 1.0;"/><!--link start to Filter for non null objects--><path d="M175,28.1759 C175,37.3186 175,51.0626 175,62.7436 " fill="none" id="start-Filter for non null objects" style="stroke: #A80036; stroke-width: 1.0;"/><polygon fill="#A80036" points="175,67.9414,179,58.9414,175,62.9414,171,58.9414,175,67.9414" style="stroke: #A80036; stroke-width: 1.0;"/><!--link Filter for non null objects to Skip as many values as required--><path d="M175,102.1631 C175,112.4368 175,125.6075 175,136.6831 " fill="none" id="Filter for non null objects-Skip as many values as required" style="stroke: #A80036; stroke-width: 1.0;"/><polygon fill="#A80036" points="175,141.93,179,132.93,175,136.93,171,132.93,175,141.93" style="stroke: #A80036; stroke-width: 1.0;"/><!--link Skip as many values as required to Limit the stream to the required count of elements--><path d="M175,176.1631 C175,186.4368 175,199.6075 175,210.6831 " fill="none" id="Skip as many values as required-Limit the stream to the required count of elements" style="stroke: #A80036; stroke-width: 1.0;"/><polygon fill="#A80036" points="175,215.93,179,206.93,175,210.93,171,206.93,175,215.93" style="stroke: #A80036; stroke-width: 1.0;"/><!--link Limit the stream to the required count of elements to use `map` to unwrap the `ResponseWrapper`--><path d="M175,250.1631 C175,260.4368 175,273.6075 175,284.6831 " fill="none" id="Limit the stream to the required count of elements-use `map` to unwrap the `ResponseWrapper`" style="stroke: #A80036; stroke-width: 1.0;"/><polygon fill="#A80036" points="175,289.93,179,280.93,175,284.93,171,280.93,175,289.93" style="stroke: #A80036; stroke-width: 1.0;"/><!--link use `map` to unwrap the `ResponseWrapper` to Print the jokes to the STDOUT--><path d="M175,324.1631 C175,334.4368 175,347.6075 175,358.6831 " fill="none" id="use `map` to unwrap the `ResponseWrapper`-Print the jokes to the STDOUT" style="stroke: #A80036; stroke-width: 1.0;"/><polygon fill="#A80036" points="175,363.93,179,354.93,175,358.93,171,354.93,175,363.93" style="stroke: #A80036; stroke-width: 1.0;"/><!--link Print the jokes to the STDOUT to end--><path d="M175,398.2542 C175,408.9518 175,422.5657 175,432.8464 " fill="none" id="Print the jokes to the STDOUT-end" style="stroke: #A80036; stroke-width: 1.0;"/><polygon fill="#A80036" points="175,437.8855,179,428.8855,175,432.8855,171,428.8855,175,437.8855" style="stroke: #A80036; stroke-width: 1.0;"/><!--
@startuml StreamFlow

(*) - -> "Filter for non null objects"
- -> "Skip as many values as required"
- -> "Limit the stream to the required count of elements"
- -> "use `map` to unwrap the `ResponseWrapper`"
- -> "Print the jokes to the STDOUT"
- -> (*)

@enduml

PlantUML version 1.2017.20(Mon Dec 11 17:57:05 CET 2017)
(GPL source distribution)
Java Runtime: OpenJDK Runtime Environment
JVM: OpenJDK 64-Bit Server VM
Java Version: 1.8.0_144-b01
Operating System: Linux
OS Version: 4.14.8-1-ARCH
Default Encoding: UTF-8
Language: en
Country: US
--></g></svg>